<?xml version="1.0" encoding="utf-8"?>
<!-- Generator: Adobe Illustrator 22.0.1, SVG Export Plug-In . SVG Version: 6.00 Build 0)  -->
<svg version="1.1" id="Capa_3" xmlns="http://www.w3.org/2000/svg" xmlns:xlink="http://www.w3.org/1999/xlink" x="0px" y="0px"
	 viewBox="0 0 376 324.3" style="enable-background:new 0 0 376 324.3;" xml:space="preserve">
<style type="text/css">
	.st0{fill:#F69F23;stroke:#F69F23;stroke-miterlimit:10;}
	.st1{fill:#F69F23;}
</style>
<path class="st0" d="M198,244.2c0-1.2-1.4-10.8-10.5-10.8s-11,9.7-11,10.8c-0.3,3.3,3.4,16.5,10.7,16.5
	C194.6,260.7,198.5,246.1,198,244.2z M198,244.2c0-1.2-1.4-10.8-10.5-10.8s-11,9.7-11,10.8c-0.3,3.3,3.4,16.5,10.7,16.5
	C194.6,260.7,198.5,246.1,198,244.2z M198,244.2c0-1.2-1.4-10.8-10.5-10.8s-11,9.7-11,10.8c-0.3,3.3,3.4,16.5,10.7,16.5
	C194.6,260.7,198.5,246.1,198,244.2z M251.8,184.2c0-1.2-1.4-10.8-10.5-10.8s-11,9.7-11,10.8c-0.3,3.3,3.4,16.5,10.7,16.5
	C248.4,200.7,252.3,186.1,251.8,184.2z M198,244.2c0-1.2-1.4-10.8-10.5-10.8s-11,9.7-11,10.8c-0.3,3.3,3.4,16.5,10.7,16.5
	C194.6,260.7,198.5,246.1,198,244.2z M251.8,184.2c0-1.2-1.4-10.8-10.5-10.8s-11,9.7-11,10.8c-0.3,3.3,3.4,16.5,10.7,16.5
	C248.4,200.7,252.3,186.1,251.8,184.2z M251.8,184.2c0-1.2-1.4-10.8-10.5-10.8s-11,9.7-11,10.8c-0.3,3.3,3.4,16.5,10.7,16.5
	C248.4,200.7,252.3,186.1,251.8,184.2z M198,244.2c0-1.2-1.4-10.8-10.5-10.8s-11,9.7-11,10.8c-0.3,3.3,3.4,16.5,10.7,16.5
	C194.6,260.7,198.5,246.1,198,244.2z"/>
<path class="st0" d="M261.8,311.1l-1.3,10.6h0.7l1.9-11.3L261.8,311.1z"/>
<circle class="st1" cx="271.8" cy="291.4" r="5.5"/>
<circle class="st1" cx="285.1" cy="275" r="5.9"/>
<polygon class="st0" points="266.2,274.5 261.8,311.1 260.2,312 "/>
<polygon class="st0" points="263.2,310.4 261.3,321.7 260.6,321.7 261.8,311.1 "/>
<polygon class="st0" points="168.3,292.8 161.6,302.7 161.4,279 "/>
<polygon class="st0" points="161.4,279 149.4,255.1 161.3,271.1 "/>
<polygon class="st0" points="161.6,305.2 159.2,306.3 161.6,302.7 "/>
<circle class="st1" cx="107.5" cy="257.5" r="6.2"/>
<circle class="st1" cx="118.5" cy="241.7" r="6.2"/>
<circle class="st1" cx="129.2" cy="263.7" r="6.2"/>
<circle class="st1" cx="91.8" cy="269.2" r="6.2"/>
<circle class="st1" cx="113" cy="279.7" r="6.2"/>
<circle class="st1" cx="135.4" cy="285.9" r="6.2"/>
<path class="st0" d="M322.2,254.7l-9.4-0.3l7.8-8.1c0,0,2.3-3.2-0.3-5.9s-6.9-1-6.9-1l-7.9,7.7l-0.3-10.3c0,0-0.7-3.6-4.8-3.6
	c-4.1,0-5.3,4-5.3,4l-0.3,10.3c0,0-3.4-5.5-9.6-7c-3.1-0.8-6.9-0.8-9.9-0.6l15-88.4h4c0,0,2.3,0.1,3.9-1.3c1.5-1.4,1.9-3.8,1.9-3.8
	v-22.3c0,0-0.5-2.4-1.9-3.4c-1.1-0.8-2.8-1-3.5-1c-0.2-5-2.2-29.7-20.9-52.4C252.8,41.9,225.1,37,225.1,37V6.5l-1.7-3.1l-3-1h-34.1
	L184,3.7l-1.3,3.5v29.5c0,0-24.1,3-46.4,27.3c-17.8,19.3-21.8,45.8-22.7,55.8h0c0,0-2.4-0.2-3.9,1s-1.5,3.2-1.5,3.2v22.5
	c0,0,0.6,2.8,1.9,4c1.3,1.1,4.6,1.1,4.6,1.1h2.8l8.6,60.1c-1.7-0.8-4.4-1.8-7.5-2.2c-5.7-0.8-12.2,2.3-12.2,2.3l-16.5,15.2l8-21.3
	c0,0,2-3.6-2.7-5.9c-4.7-2.3-7,1.9-7,1.9l-8,20.9l-6.3-6.2c0,0-3.2-2.3-6,0c-2.8,2.3-1.5,6.2-1.5,6.2l6.2,7.1L51,238.1
	c0,0-2.7,2.7-1.5,6c1.2,3.3,5.2,3,5.2,3l23.2-9c-0.4,0.5-14.3,16.2-15.3,17.5c-1,1.3-2.8,7.7-2.3,14.6c0.5,6.9,8,13.4,8,13.4
	l51.2,33.7c0,0,9.8,4.7,13.6,4.7c3.8,0.1,15.8,0,15.8,0h112.6l0-0.3h-0.7l1.3-10.6l1.4-0.7l10.1-59.3c1-0.4,2.1-0.7,3.4-0.9
	c5.3-0.8,7.3,1.5,7.3,1.5l22.3,21.8c0,0,4.4,2.8,3.8,8.5c0.1,3.9-2.5,5.8-2.5,5.8l-44.2,22.7l-1.9,11.3h0.7l51.1-25.3
	c0,0,6.4-2.8,7.3-13.5c0.8-10.7-7.4-17.9-7.4-17.9h9.5c0,0,3.9-2.2,3.9-5.4S322.2,254.7,322.2,254.7z M225.2,47.7
	c0,0,14.7,3.4,29.3,14.9s19.3,23.1,19.3,23.1s-7.6,7-20.4,10c-12.8,3-28.2,2.8-28.2,2.8L225.2,47.7z M193.1,12.6h21.7v13.2L193.1,15
	V12.6z M193.1,26.5l15.6,7.8c0,0-4.8-0.4-8.4-0.2c-3.6,0.3-7.2,0.8-7.2,0.8V26.5z M214.8,46v6.3L200.3,45c0,0,3.7,0,8.3,0.1
	C213.1,45.2,214.8,46,214.8,46z M193.1,53.1l21.7,10.5v15.5l-21.7-10.5V53.1z M193.1,80.1L214.8,91v6.5c0,0-6.8-0.7-12.3-2.8
	c-5.5-2.2-9.3-5.2-9.3-5.2V80.1z M155.3,60.9c12.2-9.4,27.3-13.2,27.3-13.2v34.8c0,0-9.8-6-24.1-5.3c-14,0.7-23.7,7.3-24.1,7.6
	C134.7,84.3,143.3,70.1,155.3,60.9z M145.2,90.8c20.1-10.2,37.6,4.5,37.6,4.5s10.6,7.7,21.1,10.5c11,3.9,30.5,2.6,30.5,2.6l14-1.4
	c0,0,10.7-1.7,18-5c7.3-3.3,11.9-6.6,11.9-6.6s2.3,5,3.9,12.5s1.5,11.7,1.5,11.7l-159.2,0C124.6,119.7,125.1,101,145.2,90.8z
	 M156.7,303.5c-5.8,7.9-18.3,8.5-18.3,8.5l0.1,0.5c-2-0.2-4.2-0.5-5.8-0.9c-4.3-1.3-9-3.5-9-3.5L75,275.7c0,0-4.2-2.6-4.7-7.5
	c-0.5-4.9,2.7-9.7,2.7-9.7l35.7-35.9c0,0,3.5-3.5,8.6-3c5.1,0.5,7.3,3.2,7.3,3.2l4,4.7l30.4,52.2C159,279.7,162.6,295.6,156.7,303.5
	z M160.9,221.6c-3,0-5.4-2.4-5.4-5.4c0-3,2.4-5.4,5.4-5.4c3,0,5.4,2.4,5.4,5.4C166.3,219.2,163.9,221.6,160.9,221.6z M156.5,178.2
	c0-3,2.4-5.4,5.4-5.4c3,0,5.4,2.4,5.4,5.4c0,3-2.4,5.4-5.4,5.4C158.9,183.6,156.5,181.2,156.5,178.2z M199.3,301.3
	c-3,0-5.4-2.4-5.4-5.4c0-3,2.4-5.4,5.4-5.4c3,0,5.4,2.4,5.4,5.4C204.8,298.9,202.3,301.3,199.3,301.3z M188,270.2
	c-18.6,0-21.4-24.2-21.1-26.6c0-1.3,1.5-21.2,21.5-21.2s20.6,19.8,20.6,21.2C209.3,245.5,206.6,270.2,188,270.2z M188.5,194.2
	c0-3,2.4-5.4,5.4-5.4c3,0,5.4,2.4,5.4,5.4c0,3-2.4,5.4-5.4,5.4C190.9,199.6,188.5,197.2,188.5,194.2z M230.7,274.6
	c-3,0-5.4-2.4-5.4-5.4c0-3,2.4-5.4,5.4-5.4c3,0,5.4,2.4,5.4,5.4C236.1,272.1,233.7,274.6,230.7,274.6z M230.7,237.8
	c-3,0-5.4-2.4-5.4-5.4c0-3,2.4-5.4,5.4-5.4c3,0,5.4,2.4,5.4,5.4C236.1,235.4,233.7,237.8,230.7,237.8z M241.8,210.2
	c-18.6,0-21.4-24.2-21.1-26.6c0-1.3,1.5-21.2,21.5-21.2s20.6,19.8,20.6,21.2C263.1,185.5,260.4,210.2,241.8,210.2z M118.5,141.1v-11
	h171v11H118.5z"/>
<circle class="st0" cx="155.5" cy="104.6" r="6.1"/>
<circle class="st0" cx="184.6" cy="115.8" r="5.1"/>
<circle class="st0" cx="270.4" cy="111.3" r="5.6"/>
</svg>
