<?xml version="1.0" encoding="utf-8"?>
<!-- Generator: Adobe Illustrator 22.0.1, SVG Export Plug-In . SVG Version: 6.00 Build 0)  -->
<svg version="1.1" id="Capa_4" xmlns="http://www.w3.org/2000/svg" xmlns:xlink="http://www.w3.org/1999/xlink" x="0px" y="0px"
	 viewBox="0 0 376 324.3" style="enable-background:new 0 0 376 324.3;" xml:space="preserve">
<style type="text/css">
	.st0{fill:#F69F25;}
</style>
<path class="st0" d="M231,10.2c1.7-2.4,7.3-4.4,7.3-4.4h46.2V0h-47.2c0,0-7.5,1.8-11.2,5.1s-5.2,9.1-5.2,9.1l-12.2,41.6h-98.7
	l-7.6,3.3l-3.1,8.4l28.6,247.7l3.4,5.8l5.8,3.3h88.9l7.3-4.8l3.4-6.9l27.8-247.2l-3.1-6.3l-8.4-3.3H216l11.5-38.2
	C227.5,17.6,229.2,12.5,231,10.2z M112.5,130.4L106.7,68l1.8-4.1l5-2.3h93.3l-20.2,68.8H112.5z M188.6,178.6l-4.7-2.7h-4.2l-7.1,2.7
	l11.1-20.4l3.3-1.3l24.6,10.8l1.4,3.5l-12.3,22.9l-2.5-0.7L188.6,178.6z M198.3,206.3v6.1l-2.9,4.1l-26,10.4l-5.8,1.3l-4.2-3.3
	l-10.2-26.1l-0.1-5.8l2.2-2.5l30.4-11.7l6,3L198.3,206.3z M153.4,276.1l-6.8-35.8l1.3-3.5l36.2-6.2l3.9,2.7l4.9,34.6l-1.2,3.6
	l-33.3,6.1L153.4,276.1z M185.9,303.2h-5.8l-20.7-11.2v-4.3l3.1-7.1l32.3-6.1l5,6.1L185.9,303.2z M203.9,250.1l-2.9,1.3l-6.6-1.7
	l-3.8-20.3l-12.5-2.5l23.3-9.1l12.1,6.8l0.7,4.5L203.9,250.1z M250.7,61.7l4.5,2l2.1,4.1l-5.5,62.7h-58.1l20.6-68.8H250.7z"/>
</svg>
