<?xml version="1.0" encoding="utf-8"?>
<!-- Generator: Adobe Illustrator 22.0.1, SVG Export Plug-In . SVG Version: 6.00 Build 0)  -->
<svg version="1.1" id="Capa_4" xmlns="http://www.w3.org/2000/svg" xmlns:xlink="http://www.w3.org/1999/xlink" x="0px" y="0px"
	 viewBox="0 0 376 324.3" style="enable-background:new 0 0 376 324.3;" xml:space="preserve">
<style type="text/css">
	.st0{fill:#F69F23;stroke:#F69F23;stroke-miterlimit:10;}
	.st1{fill:#F69F23;}
</style>
<path class="st0" d="M331.1,120.9c-2.8-1.2-6.7,1.5-6.7,1.5l-182.9,168c0,0-2.4,2.5-1.8,6.5c0.7,4,3,4.3,3,4.3h183.6
	c0,0,2.8-0.3,5.1-2.8c2.3-2.6,1.7-6.4,1.7-6.4l0.7-167C333.8,125.1,333.9,122.1,331.1,120.9z M233.3,243.5l33.2-31.9
	c0,0,3.5-2,5.7,0.4c2.2,2.4,0,5.3,0,5.3l-34.3,32.4c0,0-2.3,1.4-4.6-0.8S233.3,243.5,233.3,243.5z M209,269.6
	c-2.1-2.4,0.1-5.9,0.1-5.9l11.4-10.5c0,0,2.9-2.3,5.6,0.5c2.1,2.8,0.5,5,0.5,5l-12.5,11.5C214.1,270.2,211.1,272,209,269.6z
	 M310.4,243.7L268.8,284c0,0-3.8,2.3-6.3,0c-2.4-2.3,0-6.3,0-6.3l41.1-39.4c0,0,3.4-2.1,5.9,0S310.4,243.7,310.4,243.7z
	 M313.4,209.5l-81.9,77.3c0,0-3.1,1-4.8-1s0-5.6,0-5.6l81-76.6c0,0,3.9-1.8,5.7,0.7C315.2,206.9,313.4,209.5,313.4,209.5z"/>
<path class="st1" d="M350.9,68.5l-6.3-7.2l-25.3-13.8c0,0-0.3-13-2.2-21.3s-8.1-14-8.1-14s-11.8-15.5-37-10.4s-27.3,35-27.3,35
	s-14.2-1.2-26.2,9.2c-12,10.4-13.2,26.4-13.2,26.4s-15.5-1-26.7,9.2c-11.2,10.3-11,26.5-11,26.5s-16.5-1.2-26.7,9.6
	c-10.2,10.7-12.1,25.7-12.1,25.7s-16.1,0.8-26.7,10.2c-10.6,9.4-11.3,26.3-11.3,26.3s-18.8,0.7-28.2,10.1
	c-9.4,9.4-11.1,25.2-11.1,25.2s-12.3,0.8-20,5.3c-7.7,4.6-13.6,15.2-13.6,15.2S8,257.1,20.4,273.9c12.4,16.8,27.4,15.8,27.4,15.8
	l21.3,28.7l5.4,3.7l8.2,2.2l254.6-0.6c0,0,5.7,0.5,11.3-6c5.5-6.5,5.2-11.4,5.2-11.4L354.1,76L350.9,68.5z M60.9,281
	c0,0-26.1,2.8-34.7-12.8c-6-9.6-7.7-27.6,4-36.7c11.7-9.1,26.2-6.8,26.2-6.8l3.4-4.2c0-0.3,0-17.1,10.1-25.6
	c10.1-8.6,25.4-7.2,25.4-7.2l3.3-3.5c0,0-0.2-14.3,8.2-24c8.4-9.6,26.1-8.1,26.1-8.1l4.4-4c0,0-1.6-13.9,9.8-24.2
	c11.4-10.3,24.6-6.9,24.6-6.9l5-4.9c0,0-3.1-13,8.6-23.4c11.6-10.4,26-8.7,26-8.7l3.9-4.2c0,0-1.8-13.4,9.2-23
	c11-9.6,25.2-8.2,25.2-8.2s1-0.7,3.4-3.4c-0.2-8.9,4.5-21.8,13.6-27.9c2-0.8,5.7-4.4,13.6-4.5c4.8,0,11.9,0.8,19,5.5
	C317.7,27,308.5,49,308.5,49l-1.7,3.9l-22,20.8c0,0-17.4-6.8-37.1-0.7c-19.8,6.1-25.1,20.3-25.1,20.3s-3.4,10.7-8.2,15.8
	c-4.9,5-10.6,2.5-25.2,12.8c-14.6,10.2-12.8,23.2-20.8,29.2c-8.1,6-16.3,4.9-27.5,14.9c-11.2,10.1-4.3,17-16.3,26.5
	c-12,9.6-22.8,7.3-30.4,15.9c-7.5,8.6-13.1,16.6-13.5,28.1c-0.3,11.6,3.2,23.5,3.2,23.5L60.9,281z M92.6,227.9
	c7.7-21.2,30-22.1,37.6-28.6c7.7-6.5,6.9-17.6,16.7-27.4c9.8-9.8,19.5-6.3,28.9-15.1c9.4-8.7,5-18.9,17.1-27.9
	c12.1-9.1,22.1-8.2,28.1-15.2c6-6.9,4.6-14,11.8-21.8c7.2-7.7,8.6-12,28.4-14.7c19.8-2.7,29.1,11.4,29.1,11.4L97,264.9
	C97,264.9,84.9,249.1,92.6,227.9z M342.9,312c-2.1,3.1-8.1,3.8-8.1,3.8l-242.2,0.5l252-231.6v219.5C344.7,304.3,345,308.9,342.9,312
	z"/>
</svg>
