<?xml version="1.0" encoding="utf-8"?>
<!-- Generator: Adobe Illustrator 22.0.1, SVG Export Plug-In . SVG Version: 6.00 Build 0)  -->
<svg version="1.1" id="Capa_4" xmlns="http://www.w3.org/2000/svg" xmlns:xlink="http://www.w3.org/1999/xlink" x="0px" y="0px"
	 viewBox="0 0 376 324.3" style="enable-background:new 0 0 376 324.3;" xml:space="preserve">
<style type="text/css">
	.st0{fill:#F69F23;stroke:#F69F23;stroke-miterlimit:10;}
</style>
<path class="st0" d="M134.5,94.2c0,0-4.2-11-14.8-17.8s-21.5-7.8-21.5-7.8l-9-28.5L54.3,51.1l8.9,29.1c0,0-10,9.6-13,20.1
	s-1,22.9-1,22.9l26,82.9h94L134.5,94.2z M73.2,154l56.6-22.2l24.4,65.7H90.5L73.2,154z"/>
<path class="st0" d="M305.2,121.2c-2-10.5-9.3-19.8-9.3-19.8l13.8-26.3l-32.3-16.5l-14.5,26.5c0,0-8.5-1.3-21.1,3.6
	c-12.6,4.9-19.6,16.9-19.6,16.9L170.7,206h100.6l21.2-40.6v147.1h-239v-149H41.8v160.8h261.8V163.5h-10.2l9.8-18.8
	C303.2,144.7,307.2,131.7,305.2,121.2z M261.5,196.2h-69l35.7-65.8l54,25.8L261.5,196.2z"/>
<polygon class="st0" points="296.3,21 282,49.3 314.3,66.1 328.6,38 "/>
<polygon class="st0" points="51.5,41.1 86.6,30 76.6,0 42.1,11.6 "/>
<path class="st0" d="M61.4,212.1V286l14.4-16.8l16.3,14.5l-14.2,16.9L61.4,286v21.5h123.3L169.6,294l14.4-16.8l16.3,14.5l-13.2,15.7
	h98v-95.3H61.4z M93.3,258.6L76.8,244l14.4-16.8l16.3,14.5L93.3,258.6z M264.4,258.4l-16.5-14.7l14.4-16.8l16.3,14.5L264.4,258.4z"
	/>
</svg>
