<?xml version="1.0" encoding="utf-8"?>
<!-- Generator: Adobe Illustrator 22.0.1, SVG Export Plug-In . SVG Version: 6.00 Build 0)  -->
<svg version="1.1" id="Capa_2" xmlns="http://www.w3.org/2000/svg" xmlns:xlink="http://www.w3.org/1999/xlink" x="0px" y="0px"
	 viewBox="0 0 376 324.3" style="enable-background:new 0 0 376 324.3;" xml:space="preserve">
<style type="text/css">
	.st0{fill:#F69F26;stroke:#F69F25;stroke-miterlimit:10;}
	.st1{fill:#F69F26;stroke:#F69F26;stroke-miterlimit:10;}
</style>
<path class="st0" d="M32.5,282.1c0,0,4.3,24.2,18.3,33.2c14,9,13.2,7,24.5,8s32.2-7.2,32.2-7.2s19.2-6.2,44-20.7s77-52.5,77-52.5
	l28.4-21.9l23-19c0,0,3.5-2.9,18.5-20c15-17.1,21.3-33.5,23.4-44.4s2.1-26.1,2.1-26.1s-6.6,13.8-12.5,23.5c-5.9,9.7-21,25-21,25
	L268.1,180l-28.3,20.8l-40.3,26.3l-55.2,35l-32.5,18.5l-22,10c0,0-12.2,4.5-29.3,4.8S32.5,282.1,32.5,282.1z"/>
<ellipse transform="matrix(0.9518 -0.3067 0.3067 0.9518 -34.0971 58.2262)" class="st1" cx="168.2" cy="137.6" rx="21.3" ry="17"/>
<path class="st1" d="M249.2,66.5c0,0-5.8,3.5-3.8,8c2.1,4.5,8.8,2,8.8,2L329,33c0,0,2.4-3.1,1.5-4.5c-0.9-1.4-5,0-5,0L249.2,66.5z"
	/>
<path class="st1" d="M247.2,87.2c0,0-4,3-1.8,8.3s9,2.3,9,2.3l85-49.8c0,0,2.3-2.8,1.8-4c-0.6-1.2-5,0-5,0L247.2,87.2z"/>
<path class="st1" d="M266.5,99.5c0,0-5,2.9-3,7.5c2,4.6,8,1.8,8,1.8l75.3-43.3c0,0,3-3.2,2-4.5s-5,0-5,0L266.5,99.5z"/>
<path class="st1" d="M238.8,115.1c-9.3,0.6-17,4.3-17,4.3l-11.3,6.7c0,0-6.7,4.8-6.7,11.5s7,14.1,7,14.1s30.9,15.1,43.9,12.3
	c13-2.8,25.1-8.5,25.1-8.5s16.8-14.6,22.7-22.1c5.9-7.5,14.3-25.5,14.3-25.5s1.6-7,0-7c-1.6,0-5,1.7-5,1.7l-28.3,15.3
	c0,0-4.8,4.5-17.7,4.7C253,122.6,248.1,114.5,238.8,115.1z"/>
<path class="st1" d="M259.1,171.6c0,0-9.8-0.1-13.5-0.6s-12.8-3.2-15.8-4.1s-16.1-7.9-16.1-7.9s-7.5-2.8-9.9-2.6s-7.2,1-11.1,3.3
	c-3.9,2.2-8,6-8,6s-5.5,6-21.9,6c-16.4,0-24.1-9.4-24.1-9.4l-9.5-14.4c0,0-0.4-1.4-5.9-5.8s-20.3-9.4-20.3-9.4s-3.2-0.4-4,0.7
	c-0.8,1.2,0,3,0,3s4.8,13.3,5,23.2c0.2,9.8-5,21.3-5,21.3s-17.3,27.3-35.2,40c-17.8,12.7-21.2,17.5-21.2,17.5s-13.2,23.5-6.7,35.3
	c6.5,11.8,34.7,10.3,34.7,10.3l12.3-2.7c0,0,26-9.6,85.2-46.3S259.1,171.6,259.1,171.6z"/>
<path class="st1" d="M182.5,71.2c0,0-2.5-16.7-6.5-26.1s-22.8-32.4-22.8-32.4s-2.4-5-6.6-5C142.5,7.7,131,13,131,13
	s-28.9,12.2-41.5,35.1s-8,40.9-8,40.9s1.8,20.4,16.8,32s23.3,13.7,23.3,13.7s3,1.3,4.8,1.3s3.3-3.4,3.3-3.4s5.8-12.6,10.5-17.3
	s23.3-12.8,23.3-12.8s1.8,0.3,10-7.8S182.5,71.2,182.5,71.2z"/>
<path class="st1" d="M185.1,87.8c0,0-6.2,13.9,1,17.8c7.2,4,16-0.8,16-0.8s16.7-7.5,20.8-13.3c4.1-5.9,4.8-7,5.5-10.8
	c0.7-3.8-2.3-8.2,7-19.5s25.2-16.8,25.2-16.8l8.3-3.2c0,0,5.5-3,6.2-9.8s-11-12.8-11-12.8s-24.7-11.5-42-15s-50.8-1.8-50.8-1.8
	s-7.8,2.3-8.5,7s4.5,12.7,4.5,12.7s13.3,16.3,19,33.2S185.1,87.8,185.1,87.8z"/>
</svg>
