<svg id="Capa_3" data-name="Capa 3" xmlns="http://www.w3.org/2000/svg" viewBox="0 0 232.73 266.8"><defs><style>.cls-1{fill:#f7a72d;stroke:#f7a72d;stroke-miterlimit:10;}</style></defs><path class="cls-1" d="M235,202.62v73.93a18.87,18.87,0,0,0,33.43-1V31a18.81,18.81,0,0,0-6.11-7.07c-7.46-5.12-16.06-2.64-17.35-2.25a90.79,90.79,0,0,0-34.72,22.18c-19,19.59-23.5,42.24-24.75,50.79l-1,79.39a31.71,31.71,0,0,0,10.28,20.57,31.38,31.38,0,0,0,18.65,7.71Z" transform="translate(-36.18 -20.21)"/><path class="cls-1" d="M75.55,151.83V272.69a17.3,17.3,0,0,0,33.75.64v-122c2.58,0,20.77-.52,33.43-15.85,11.69-14.15,10-30.42,9.64-33.22L135.45,26.37a8.08,8.08,0,0,0-14.79-.22q-.43,37.94-.86,75.86a5.44,5.44,0,0,1-10.74.24q-4.29-38.13-8.6-76.26A5.28,5.28,0,0,0,90,26l-9.24,76.26a5.17,5.17,0,0,1-10.29,0q-.43-38-.88-75.94a8.29,8.29,0,0,0-15-.08L36.82,102c-.27,3.28-1.28,19.39,10.45,33.59A47.25,47.25,0,0,0,75.55,151.83Z" transform="translate(-36.18 -20.21)"/></svg>