<?xml version="1.0" encoding="utf-8"?>
<!-- Generator: Adobe Illustrator 22.0.1, SVG Export Plug-In . SVG Version: 6.00 Build 0)  -->
<svg version="1.1" xmlns="http://www.w3.org/2000/svg" xmlns:xlink="http://www.w3.org/1999/xlink" x="0px" y="0px"
	 viewBox="0 0 376 324.3" style="enable-background:new 0 0 376 324.3;" xml:space="preserve">
<style type="text/css">
	.st0{display:none;}
	.st1{display:inline;fill:#F69F25;stroke:#F69F23;stroke-width:4;stroke-miterlimit:10;}
	.st2{fill:#F69F25;stroke:#F69F23;stroke-miterlimit:10;}
</style>
<g id="Capa_3" class="st0">
	<polygon class="st1" points="50.8,152.8 31.7,175 15.2,203 7.7,222.5 3.2,243.7 3.2,260.5 7.2,276.2 14.2,288.5 27,294.7 
		38.5,296.5 52.7,295 73.7,290.2 94.3,282.7 142.5,260.5 189.7,234.7 262.5,192 295.2,171 328,146.2 351.4,126 362.2,113 368.5,103 
		372,94.2 374,82 371.2,72.2 364.2,61 356.7,53.2 346.2,46.2 328,39.2 308,36.2 284.5,36.2 270.5,38.5 258.2,34.5 246,34.5 
		235.2,36.2 219,47.7 230,50.2 241.5,54.5 249,58.7 259,64.7 267.7,71 274.7,76.5 280.2,82.5 283.7,88.2 284,93.7 282.5,96.5 
		279.2,97.2 274,96.7 259.7,91.7 240.2,80.2 223,69.5 210.2,61.7 199.5,57 193.7,58.2 186.5,59 175.7,59 163.5,59.5 153,62.2 
		142.5,69 137.7,76.5 135.2,85 148.7,86 161.7,89.2 174.7,95.7 186.5,103.5 197.2,111.6 205.5,119.7 210.7,126 213.5,131.3 
		214.7,137.7 214,142.5 209.2,144.7 201.7,143.2 190.2,139 165.7,124.5 142.5,109 124.2,100 115.2,96.7 105.5,98 93,102 83,106.5 
		73.2,114.5 66.3,122 60,137.2 71.2,134.7 80.2,136.5 90.5,138 99.7,142.2 109.7,148.5 118.4,154.5 124,161.8 130.5,170.7 
		131.5,176.7 130,180 124.5,181 113.7,178.7 94.3,171.7 	"/>
</g>
<g id="Capa_2">
</g>
<g id="Capa_4">
	<path class="st2" d="M144,221c0,0-3.9-16-2.5-25s10.3-11.6,13.5-16.5s0.9-13.3,0-17.3s-4.5-10.7-4.5-10.7s-4.1-7.5-9-8
		s-8.8,2.9-11.5,2.5c-2.8-0.4-6.5-7.5-6.5-7.5l-7.5-15c0,0-4.6-8.5-11-9s-15.9,6.5-19,5s-5.4-14-9.5-14s-10.5,3.3-14.3,2.8
		s-11.4-4.9-11.4-4.9l-5.8-2.5c0,0-4.5-1.9-7.8,0s-2.8,7.5-2.8,7.5s0.1,5.5,0.8,9.1s4.4,9.6,4.4,9.6s1.8,4.5,1.8,9.2s-5,11.5-5,11.5
		l-0.4,2.5L37,154l1.4,2c0,0,2.4,2.6,2.6,5.4s-3.3,5.9-3.3,5.9l-2.3,2.1l-4.1,3.5c0,0,7,5.3,14.4,10.5s22.8,13.6,31.9,18.1
		s53,17.4,53,17.4l-6.3-9l-24.9-4.1c0,0-2.4-0.5-3-3.4s1.8-3.9,1.8-3.9l18.1-0.3c0,0-1.6-3-5.4-6.6s-14.5-6.9-14.5-6.9l-28.9-8.9
		c0,0-2.3-2.4-1.6-5.4s4.1-3,4.1-3l20.9,5.9l-28.4-37.5c0,0-3.1-4.1-1.1-5.8s7.3,1.4,7.3,1.4L91.5,159l-0.1-14.3c0,0,1-4.1,3.4-4.6
		s4.4,4.3,4.4,4.3l4,28.5l18.4,16l0.8-14.6c0,0-0.3-3.8,5.3-6.6c5.5-2.9,5.5,5.8,5.5,5.8l-1.9,9.9l-1,6.8l0.6,6.6l1.3,5.4l5.8,10.9
		L144,221z"/>
	<path class="st2" d="M154.3,222.5l24.8,1h22c0,0,8.8-11,14.2-21.2c5.3-10.2,5.2-15.5,5.2-15.5l-4.7-18.5l-1.3-8.5
		c0,0,1.2-6.8,3.8-8.2s7.5,4.2,7.5,4.2s2.7,5.3,3.8,10.7c1.2,5.3,1.2,14.5,1.2,14.5l27.2-24.2c0,0,2.7-20.2,2.7-23.5
		c0-3.3-0.2-9.3,0-11.8s2.5-5.2,5.7-5.3c3.2-0.2,4.8,5.2,4.8,5.2l0.8,8.8l-1,10.3l24.3-29.2l5.7-6.3l6.7-5.5c0,0,4.3-2,5.5-0.7
		c1.2,1.3,0,5.3,0,5.3l-5,6.7l-39.3,50.3l18-6.3l5.5-1.3l7.7-0.8c0,0,4.2,0.3,5,3.3c0.8,3-3.5,6.2-3.5,6.2l-9,3.5l-28.7,7.2
		c0,0-6.5,1.8-13.2,5.5C244,182,238.1,192,238.1,192l-1.7,2.7c0,0,7.3-0.7,12.3-1s11.8-0.2,11.8-0.2s5,1.5,4.7,5
		c-0.3,3.5-4,4.3-4,4.3l-34.5,4.2l-12.5,16.5c0,0,41.7-5,76.5-17.5s60.2-38.3,60.2-38.3c2.2-1.7,2.2-3,2.2-5.5s-4-6.8-4-6.8
		l-7.7-8.2c0,0-1.8-0.8-2.2-3.7c-0.3-2.9,2-5.5,2-5.5s5.7-5.2,6.3-9.7c0.7-4.5-6.7-11-6.7-11s-1.8-2.3-2.2-7.8
		c-0.3-5.5,4.5-16.5,4.5-16.5l4.3-17.5c0,0,1.5-14.3-1.5-16.3s-12-1.9-14.8,0c-2.8,1.9-5.5,3.7-5.5,3.7s-3.3,3.7-9,5.5
		c-5.7,1.8-18.8-1.5-18.8-1.5s-2.5-0.5-5-0.2s-4.3,3.5-4.3,3.5l-7,11.5c0,0-1.5,2.7-4.2,2.8c-2.7,0.2-6.3-1.8-6.3-1.8l-8.8-5
		c0,0,0.5-0.5-4.8-1c-5.3-0.5-11.7,5.5-11.7,5.5s-4.7,4.2-7.2,7.2S227,111.8,227,111.8s-2.2,7.3-5.2,8.3s-10.7-2.8-10.7-2.8
		s-9.3-2.3-12.7-1c-3.3,1.3-8.8,11.2-8.8,11.2l-4.2,13c0,0-3.2,11.8-3.2,20.8s2.8,23.5,2.8,23.5l1,9.5c0,0,1.2,4.3-1.7,6.2
		c-2.8,1.8-10.7-3.3-10.7-3.3l-6.5-5.7c0,0-2.3-3.7-6.5-3c-4.2,0.7-7.2,5.8-7.2,5.8s-2.5,7.5-2.5,11.2c0,3.7,1.8,6.7,1.8,6.7
		L154.3,222.5z"/>
	<path class="st2" d="M173.7,160.5c0,0,3.4-30.7,7.3-38.3c3.8-7.6,8.8-12.7,13-14.8c4.2-2.1,18.3,1.4,21.8,0c3.4-1.4,5-6.2,6.3-11.3
		c1.3-5.1,2.7-15.4,2-20c-0.7-4.6-0.7-13.4-3-19.8c-2.3-6.3-18.5,0-18.5,0s-6.8,1.1-10.3-2c-3.4-3.1-3.5-9.4-5.2-12.3
		c-1.7-2.8-12.6-1.6-19.6-5.5S141,10.5,141,10.5s-6.7-6.8-11.8-6.8c-5.1,0-9.1,5.9-10,7.8s-1.7,16.6-2.8,21S107,46,107,46
		s-4,4.3-4.5,5.3s2.3,6.5,2.3,6.5l2.8,6.3c0,0,3.1,8.3,2.5,10.3c-0.6,1.9-4.5,3.5-4.5,3.5s-9.8,5-11.5,6.8
		c-1.7,1.8-7.1,16.4-4.5,18.8c2.6,2.3,17.8-3.5,25.8,3.3s13.8,21.5,17.5,23.5c3.7,2,14.4,2.9,17.3,3.8c2.8,0.8,9.1,8.6,10.3,11.3
		c1.2,2.7,4.3,21.5,4.3,21.5l-1.3-25.9l-8-13.6l-24-21.3c0,0-2.7-4.1-0.8-5.7c1.9-1.6,8.5,1,8.5,1l13.3,10.5l-11-40
		c0,0-3.3-15.3-0.5-16.8c2.8-1.4,8.3,10,8.3,10l14.3,42.5l5.3,20c0,0,6.4-23.3,7-25.2c0.6-1.9,6.9-13,10.3-12
		c3.3,0.9,1.3,11.5,1.3,11.5L183,110c0,0-4.2,8.1-4.8,10.8c-0.6,2.6-2.8,12.7-2.8,12.7L173.7,160.5z"/>
	<path class="st2" d="M12.5,183.3c0,0,0.9-2.9,3.9-4.1c3-1.1,7.9,2.4,7.9,2.4s48.1,48.8,163.6,52.8s165.1-51,165.1-51
		s7.3-5,10.8-3.8s4.7,6.7,4.7,6.7s-2.3,56.3-36.4,79.5s-70.7,34.7-70.7,34.7l0.3,14.2c0,0-1.2,2.7-3.1,3.9c-1.9,1.3-5.8,1.3-5.8,1.3
		H125c0,0-3.2-1.5-4.5-2.8s-1-5.5-1-5.5L120,301c0,0-51.6-13-79.5-43.5S12.5,183.3,12.5,183.3z"/>
</g>
</svg>
