<svg id="Capa_2" data-name="Capa 2" xmlns="http://www.w3.org/2000/svg" viewBox="0 0 283.22 267.29"><defs><style>.cls-1,.cls-2{fill:#f7a72d;}.cls-1{stroke:#f7a72d;stroke-miterlimit:10;}</style></defs><path class="cls-1" d="M31.3,155.37H266.37a29.54,29.54,0,0,1-.64,58.71H30.87a31,31,0,0,1,.43-58.71Z" transform="translate(-9.58 -21.58)"/><path class="cls-2" d="M23.16,229.72H273c2.15,1.77,8.39,7.39,9.19,16.07a20.19,20.19,0,0,1-.21,5.36,48.29,48.29,0,0,1-9.65,20.79A49.6,49.6,0,0,1,245,288.87l-192.43-.22A49,49,0,0,1,26,272.58c-1.74-2.07-8.76-10.49-10.29-21.64a23.8,23.8,0,0,1-.21-5.15C16,237.92,20.65,232.32,23.16,229.72Z" transform="translate(-9.58 -21.58)"/><path class="cls-1" d="M276.45,102C260.52,67.68,234,48.65,234,48.65,197.67,22.55,159.11,22,150.45,22.08c-43.24.3-72.77,20.36-81.65,26.57C48.54,62.84,38.91,77.44,26.37,96.44c-7,10.62-6.13,24.33-3.64,32.35,3.19,10.29,10.23,9,13.93,10.29l229.07-.21c3.72-1.23,10.56-4.14,13.93-10.72C283.4,120.87,281.23,112.32,276.45,102ZM77.27,97.51a14,14,0,1,1,14-14A14,14,0,0,1,77.27,97.51ZM151.19,75a14,14,0,1,1,14-14A14,14,0,0,1,151.19,75Zm69.55,22.52a14,14,0,1,1,14-14A14,14,0,0,1,220.74,97.51Z" transform="translate(-9.58 -21.58)"/></svg>