<?xml version="1.0" encoding="utf-8"?>
<!-- Generator: Adobe Illustrator 22.0.1, SVG Export Plug-In . SVG Version: 6.00 Build 0)  -->
<svg version="1.1" id="Capa_3" xmlns="http://www.w3.org/2000/svg" xmlns:xlink="http://www.w3.org/1999/xlink" x="0px" y="0px"
	 viewBox="0 0 376 324.3" style="enable-background:new 0 0 376 324.3;" xml:space="preserve">
<style type="text/css">
	.st0{fill:#F69F25;stroke:#F69F23;stroke-width:4;stroke-miterlimit:10;}
</style>
<polygon class="st0" points="50.8,152.8 31.7,175 15.2,203 7.7,222.5 3.2,243.7 3.2,260.5 7.2,276.2 14.2,288.5 27,294.7 
	38.5,296.5 52.7,295 73.7,290.2 94.3,282.7 142.5,260.5 189.7,234.7 262.5,192 295.2,171 328,146.2 351.4,126 362.2,113 368.5,103 
	372,94.2 374,82 371.2,72.2 364.2,61 356.7,53.2 346.2,46.2 328,39.2 308,36.2 284.5,36.2 270.5,38.5 258.2,34.5 246,34.5 
	235.2,36.2 219,47.7 230,50.2 241.5,54.5 249,58.7 259,64.7 267.7,71 274.7,76.5 280.2,82.5 283.7,88.2 284,93.7 282.5,96.5 
	279.2,97.2 274,96.7 259.7,91.7 240.2,80.2 223,69.5 210.2,61.7 199.5,57 193.7,58.2 186.5,59 175.7,59 163.5,59.5 153,62.2 
	142.5,69 137.7,76.5 135.2,85 148.7,86 161.7,89.2 174.7,95.7 186.5,103.5 197.2,111.6 205.5,119.7 210.7,126 213.5,131.3 
	214.7,137.7 214,142.5 209.2,144.7 201.7,143.2 190.2,139 165.7,124.5 142.5,109 124.2,100 115.2,96.7 105.5,98 93,102 83,106.5 
	73.2,114.5 66.3,122 60,137.2 71.2,134.7 80.2,136.5 90.5,138 99.7,142.2 109.7,148.5 118.4,154.5 124,161.8 130.5,170.7 
	131.5,176.7 130,180 124.5,181 113.7,178.7 94.3,171.7 "/>
</svg>
