<svg id="Capa_2" data-name="Capa 2" xmlns="http://www.w3.org/2000/svg" viewBox="0 0 302.67 181.98"><defs><style>.cls-1{fill:#f7a72d;stroke:#f7a72d;stroke-miterlimit:10;}</style></defs><path class="cls-1" d="M306,143.47c-.62-10.91-6.11-18.77-9-22.82C247.83,52,180.34,54.44,180.34,54.44c-61.4,2.24-96.42,49.72-100.61,55.6H72.66c-3.24-5.18-14.15-21.17-35.36-28.28A65.76,65.76,0,0,0,6.45,79.19a62.42,62.42,0,0,0-1.29,24.1C8.68,127.63,25.89,142.13,30.87,146,25.06,151,10.41,164.69,5.8,187.19a70,70,0,0,0-.64,24.1,77.9,77.9,0,0,0,25.39-2.89c23-6.59,36.52-22.12,41.79-28.93l7.07-.32C83.68,185,121,234.69,184.52,235.4c0,0,71.86.81,113.46-65.57C300.74,165.43,306.72,155.89,306,143.47Zm-82.75,3.36a20.9,20.9,0,1,1,20.89-20.89A20.89,20.89,0,0,1,223.27,146.83Z" transform="translate(-3.91 -53.93)"/></svg>