<svg id="Capa_3" data-name="Capa 3" xmlns="http://www.w3.org/2000/svg" viewBox="0 0 290.73 276.54"><defs><style>.cls-1{fill:#f7a72d;stroke:#f7a72d;stroke-miterlimit:10;}</style></defs><path class="cls-1" d="M74.27,64.08c12-.31,74-.67,125.68,47.89,52.83,49.68,55.35,113.47,55.6,125l29.9-7.07a17.79,17.79,0,0,0,8-2.57c7.62-4.75,8.57-13.83,8.68-15.11-.74-14.42-5.82-83-63.32-137.25C183.37,22.65,117.65,20,102.55,19.72A37,37,0,0,0,84.87,31.29a34.9,34.9,0,0,0-4.5,7.08Z" transform="translate(-11.93 -19.22)"/><path class="cls-1" d="M181.62,118.4c-46.87-39-100.17-37.34-112.5-36.64Q40.85,183.6,12.55,285.44a8.47,8.47,0,0,0,3.11,8.14,8.88,8.88,0,0,0,7.82,1.29l216-53.36C239.37,231.7,237.48,164.86,181.62,118.4ZM85.21,248.86a22,22,0,1,1,22.05-22.05A22,22,0,0,1,85.21,248.86Zm25.91-78.43a22,22,0,1,1,22-22.05A22,22,0,0,1,111.12,170.43Zm56,52a22,22,0,1,1,22-22.05A22,22,0,0,1,167.12,222.43Z" transform="translate(-11.93 -19.22)"/></svg>