<?xml version="1.0" encoding="utf-8"?>
<!-- Generator: Adobe Illustrator 22.0.1, SVG Export Plug-In . SVG Version: 6.00 Build 0)  -->
<svg version="1.1" id="Capa_4" xmlns="http://www.w3.org/2000/svg" xmlns:xlink="http://www.w3.org/1999/xlink" x="0px" y="0px"
	 viewBox="0 0 376 324.3" style="enable-background:new 0 0 376 324.3;" xml:space="preserve">
<style type="text/css">
	.st0{fill:none;stroke:#F69F23;stroke-width:10;stroke-miterlimit:10;}
	.st1{fill:#F69F23;stroke:#F69F23;stroke-width:2;stroke-miterlimit:10;}
	.st2{fill:none;stroke:#F69F23;stroke-width:20;stroke-miterlimit:10;}
</style>
<path class="st0" d="M142.5,76.5c0,0-20.2,10.5-34.2,30.5s-14,41.5-14,41.5"/>
<circle class="st1" cx="225.4" cy="111.6" r="37.1"/>
<path class="st0" d="M225.4,43c0,0-54.2-6.8-73.4,40s24.1,86.7,24.1,86.7l5.1,3.3c0,0,8,1.7,16,6.7c7.9,5,13.8,15.3,13.8,15.3
	l17.6,16c0,0,40.4,20.5,69.4-11s13-63.3,11-66.5s-7.5-8-7.5-8s-7.5-8.3-12-13.9s-3-19.1-15-37.1S243.2,48,243.2,48L225.4,43z"/>
<path class="st1" d="M70,209.7c0,0-9.5-18,2-34.1s29.4-9.1,29.4-9.1l6.9,2c0,0,30.4,25.8,54.7,37c24.3,11.3,76.2,23.1,76.2,23.1
	l7.8,3.4c0,0,16,9,13.5,29s-25,23-25,23h-10.1c0,0-55.4-12.7-82.9-25.5S74,214.3,74,214.3L70,209.7z"/>
<circle class="st2" cx="191.9" cy="163.1" r="152.1"/>
</svg>
