<svg xmlns="http://www.w3.org/2000/svg" viewBox="0 0 298.1 258.91"><defs><style>.cls-1{fill:#f7a72d;}</style></defs><g id="Capa_2" data-name="Capa 2"><ellipse class="cls-1" cx="37.14" cy="96.16" rx="18.67" ry="13.82"/><ellipse class="cls-1" cx="92.95" cy="96.16" rx="18.67" ry="13.82"/><ellipse class="cls-1" cx="149.05" cy="96.16" rx="18.67" ry="13.82"/><ellipse class="cls-1" cx="204.74" cy="96.16" rx="18.67" ry="13.82"/><ellipse class="cls-1" cx="260.67" cy="96.16" rx="18.67" ry="13.82"/><ellipse class="cls-1" cx="232.63" cy="53.98" rx="18.67" ry="18.48"/><ellipse class="cls-1" cx="176.67" cy="53.98" rx="18.67" ry="18.48"/><ellipse class="cls-1" cx="120.95" cy="53.98" rx="18.67" ry="18.48"/><ellipse class="cls-1" cx="65.25" cy="54.16" rx="18.67" ry="18.48"/><ellipse class="cls-1" cx="121.48" cy="13.92" rx="18.67" ry="13.92"/><ellipse class="cls-1" cx="177.36" cy="13.92" rx="18.67" ry="13.92"/></g><g id="Capa_4" data-name="Capa 4"><path class="cls-1" d="M8.37,164.22h297.5c.17,14.67.34,32.34.5,47-5.1,18.39-18.46,30.61-25,36.5-10.29,9.28-18.71,10.21-31,21a87.12,87.12,0,0,0-19.5,25l-149.5.5c-2.72-8.2-7.8-19.35-18-28.5-10.46-9.39-18.61-9.76-29-17.5-8-6-19.73-16.61-26-37C8.71,197.22,8,178.22,8.37,164.22Z" transform="translate(-8.28 -35.31)"/></g></svg>