<?xml version="1.0" encoding="utf-8"?>
<!-- Generator: Adobe Illustrator 22.0.1, SVG Export Plug-In . SVG Version: 6.00 Build 0)  -->
<svg version="1.1" id="Capa_2" xmlns="http://www.w3.org/2000/svg" xmlns:xlink="http://www.w3.org/1999/xlink" x="0px" y="0px"
	 viewBox="0 0 376 324.3" style="enable-background:new 0 0 376 324.3;" xml:space="preserve">
<style type="text/css">
	.st0{fill:#F69F21;}
</style>
<polygon class="st0" points="0,254.7 376,254.7 268.3,307 108.3,307.3 "/>
<path class="st0" d="M108.3,310.9v4.8c0,0-0.1,2,2.1,5.1s5.4,3.6,5.4,3.6s144,0,144.8,0s2.3-0.1,5-2.6s2.5-3.6,2.7-4.1s0-6.7,0-6.7
	H108.3z"/>
<path class="st0" d="M345.2,245.7c0,0-3.7-7.6-10.6-11.4c-6.9-3.8-14.5-3.9-18.4-3.6c-4,0.3-12.3,5.5-12.3,5.5s-8.5-11.4-19-12
	c-10.5-0.6-18.3,5.8-18.3,5.8s-8.3-22.8-28.1-21.3c-19.8,1.5-27,18.5-27,18.5s-0.2-9.5-10.7-16.5s-27,0.7-27,0.7s-1.8-8.1-6.1-12.4
	c-4.3-4.4-7.9-6.9-7.9-6.9s-7-6.6-25-3.3s-22.1,19.2-22.1,19.2s-9.6-6.8-15-7.7c-5.3-0.9-18.6-1.4-26,4.6c-7.3,6-9,20-9,20
	c-3.6-0.6-11.7-4.7-23.7,2c-8.3,4.7-14,19-14,19h37.3c-1-1.2-1.6-2.7-1.6-4.4c0-3.7,3-6.7,6.7-6.7c3.7,0,6.7,3,6.7,6.7
	c0,1.7-0.6,3.2-1.6,4.4h50.6c-1.3-1.8-2-4-2-6.4c0-6.3,5.1-11.3,11.3-11.3c6.3,0,11.3,5.1,11.3,11.3c0,2.4-0.7,4.6-2,6.4h146.3
	c-1-1.2-1.6-2.7-1.6-4.4c0-3.7,3-6.7,6.7-6.7c3.7,0,6.7,3,6.7,6.7c0,1.7-0.6,3.2-1.6,4.4H345.2z M94.3,223.8c-3.9,0-7.1-3.2-7.1-7.1
	c0-3.9,3.2-7.1,7.1-7.1s7.1,3.2,7.1,7.1C101.3,220.7,98.2,223.8,94.3,223.8z M152,211c-3,0-5.5-2.5-5.5-5.5c0-3,2.5-5.5,5.5-5.5
	s5.5,2.5,5.5,5.5C157.5,208.5,155,211,152,211z M197.2,244.6c-5,0-9-4-9-9c0-4.9,4-9,9-9c4.9,0,9,4,9,9
	C206.2,240.6,202.2,244.6,197.2,244.6z M243.2,229.7c-4.2,0-7.7-3.4-7.7-7.7c0-4.2,3.4-7.7,7.7-7.7c4.2,0,7.7,3.4,7.7,7.7
	C250.8,226.2,247.4,229.7,243.2,229.7z"/>
<path class="st0" d="M149.5,79.9c0,0-3,10.3-3,16.8s5.5,15.3,5.5,15.3l20,21.2c0,0,9.3,9.8,9.3,23.8S166,179.7,166,179.7
	s2.5-13,0.8-20.5c-0.7-3.2-6.7-11.9-12.4-18.1c-7.7-8.3-14.4-16.4-14.4-16.4s-6.7-7.2-7.1-20.5C132.4,90.9,149.5,79.9,149.5,79.9z"
	/>
<path class="st0" d="M174.8,0c0,0-4.9,18-4.9,29.5s9,26.8,9,26.8l32.9,37.4c0,0,15.2,17.2,15.2,41.8s-25.1,40-25.1,40
	s4.1-22.9,1.2-36.1c-1.2-5.6-11-21-20.3-31.8c-12.7-14.6-23.6-28.9-23.6-28.9S148.3,66,147.5,42.7S174.8,0,174.8,0z"/>
</svg>
