<?xml version="1.0" encoding="utf-8"?>
<!-- Generator: Adobe Illustrator 22.0.1, SVG Export Plug-In . SVG Version: 6.00 Build 0)  -->
<svg version="1.1" id="Capa_2" xmlns="http://www.w3.org/2000/svg" xmlns:xlink="http://www.w3.org/1999/xlink" x="0px" y="0px"
	 viewBox="0 0 376 324.3" style="enable-background:new 0 0 376 324.3;" xml:space="preserve">
<style type="text/css">
	.st0{fill:#F69F21;}
	.st1{fill:#F69F23;}
</style>
<polygon class="st0" points="0,254.7 376,254.7 268.3,307 108.3,307.3 "/>
<path class="st0" d="M108.3,310.9v4.8c0,0-0.1,2,2.1,5.1s5.4,3.6,5.4,3.6s144,0,144.8,0s2.3-0.1,5-2.6s2.5-3.6,2.7-4.1s0-6.7,0-6.7
	H108.3z"/>
<path class="st0" d="M345.2,245.7c0,0-3.7-7.6-10.6-11.4c-6.9-3.8-14.5-3.9-18.4-3.6c-4,0.3-12.3,5.5-12.3,5.5s-8.5-11.4-19-12
	c-10.5-0.6-18.3,5.8-18.3,5.8s-8.3-22.8-28.1-21.3c-19.8,1.5-27,18.5-27,18.5s-0.2-9.5-10.7-16.5s-27,0.7-27,0.7s-1.8-8.1-6.1-12.4
	c-4.3-4.4-7.9-6.9-7.9-6.9s-7-6.6-25-3.3s-22.1,19.2-22.1,19.2s-9.6-6.8-15-7.7c-5.3-0.9-18.6-1.4-26,4.6c-7.3,6-9,20-9,20
	c-3.6-0.6-11.7-4.7-23.7,2c-8.3,4.7-14,19-14,19h37.3c-1-1.2-1.6-2.7-1.6-4.4c0-3.7,3-6.7,6.7-6.7c3.7,0,6.7,3,6.7,6.7
	c0,1.7-0.6,3.2-1.6,4.4h50.6c-1.3-1.8-2-4-2-6.4c0-6.3,5.1-11.3,11.3-11.3c6.3,0,11.3,5.1,11.3,11.3c0,2.4-0.7,4.6-2,6.4h146.3
	c-1-1.2-1.6-2.7-1.6-4.4c0-3.7,3-6.7,6.7-6.7c3.7,0,6.7,3,6.7,6.7c0,1.7-0.6,3.2-1.6,4.4H345.2z M94.3,223.8c-3.9,0-7.1-3.2-7.1-7.1
	c0-3.9,3.2-7.1,7.1-7.1s7.1,3.2,7.1,7.1C101.3,220.7,98.2,223.8,94.3,223.8z M152,211c-3,0-5.5-2.5-5.5-5.5c0-3,2.5-5.5,5.5-5.5
	s5.5,2.5,5.5,5.5C157.5,208.5,155,211,152,211z M197.2,244.6c-5,0-9-4-9-9c0-4.9,4-9,9-9c4.9,0,9,4,9,9
	C206.2,240.6,202.2,244.6,197.2,244.6z M243.2,229.7c-4.2,0-7.7-3.4-7.7-7.7c0-4.2,3.4-7.7,7.7-7.7c4.2,0,7.7,3.4,7.7,7.7
	C250.8,226.2,247.4,229.7,243.2,229.7z"/>
<g>
	<g>
		<path class="st1" d="M189.6,97.3c-0.1,0-0.2-0.1-0.3-0.1c-1.4-0.5-3.3-0.1-4.6,0.6c-1.2,0.7-2.4,2.2-2.8,3.6
			c-0.3,1.5-0.3,3.3,0.6,4.6c0.9,1.4,2,2.2,3.6,2.8c0.1,0,0.2,0.1,0.3,0.1c1.4,0.5,3.3,0.1,4.6-0.6c1.2-0.7,2.4-2.2,2.8-3.6
			c0.3-1.5,0.3-3.3-0.6-4.6C192.3,98.8,191.1,97.9,189.6,97.3L189.6,97.3z"/>
	</g>
</g>
<g>
	<g>
		<path class="st1" d="M189,97.1c-22.6-7.2-45.3-14.3-67.9-21.5c-7.4-2.3-10.5,9.2-3.2,11.6c22.6,7.2,45.3,14.3,67.9,21.5
			C193.2,111.1,196.3,99.5,189,97.1L189,97.1z"/>
	</g>
</g>
<g>
	<g>
		<path class="st1" d="M189.6,108.9c22.8-7.2,45.7-14.4,68.5-21.7c7.3-2.3,4.2-13.9-3.2-11.6c-22.8,7.2-45.7,14.4-68.5,21.7
			C179.1,99.7,182.2,111.3,189.6,108.9L189.6,108.9z"/>
	</g>
</g>
<g>
	<g>
		<path class="st1" d="M182.2,99.9c-14.2,19.2-28.4,38.4-42.6,57.6c-4.6,6.2,5.8,12.2,10.4,6.1c14.2-19.2,28.4-38.4,42.6-57.6
			C197.1,99.7,186.7,93.8,182.2,99.9L182.2,99.9z"/>
	</g>
</g>
<g>
	<g>
		<path class="st1" d="M235.4,157.5c-14.2-19.2-28.3-38.3-42.5-57.5c-4.5-6.1-15-0.2-10.4,6.1c14.2,19.2,28.3,38.3,42.5,57.5
			C229.6,169.7,240,163.8,235.4,157.5L235.4,157.5z"/>
	</g>
</g>
<g>
	<g>
		<path class="st1" d="M182.3,105.8c0.1,0.1,0.1,0.2,0.2,0.3c2.3-2.9,4.5-5.9,6.8-8.8c-0.1,0-0.2-0.1-0.3-0.1
			c1.2,2.9,2.4,5.9,3.6,8.8c0-0.1,0.1-0.1,0.1-0.2c0.4-0.7,0.7-1.4,0.7-2.2c0.2-0.8,0.1-1.6-0.1-2.4c-0.4-1.4-1.5-2.9-2.8-3.6
			c-1.4-0.7-3.1-1.1-4.6-0.6c-0.5,0.2-1,0.4-1.4,0.6c-0.9,0.5-1.6,1.3-2.2,2.2c0,0.1-0.1,0.1-0.1,0.2c-0.5,0.9-0.8,1.9-0.8,3
			c0,0.8,0.1,1.6,0.5,2.3c0.7,1.8,2.1,2.9,3.9,3.5c0.1,0,0.2,0.1,0.3,0.1c0.5,0.1,1.1,0.1,1.6,0.2c0.5-0.1,1.1-0.1,1.6-0.2
			c1.3-0.3,2.3-1.1,3.1-2.2c0.4-0.4,0.6-0.8,0.8-1.3c0.3-0.5,0.4-1,0.4-1.5c0.2-1.2,0-2.8-0.7-3.8c-0.1-0.1-0.1-0.2-0.2-0.3
			c-0.4-0.7-0.9-1.3-1.5-1.7c-0.6-0.5-1.3-0.9-2-1.1c-1.4-0.4-3.3-0.2-4.6,0.6c-1.3,0.8-2.4,2.1-2.8,3.6
			C181.4,102.6,181.4,104.5,182.3,105.8z"/>
	</g>
</g>
<g>
	<g>
		<path class="st1" d="M181.7,103C181.7,103.1,181.7,103.1,181.7,103c3.4-1.4,6.8-2.8,10.2-4.2c0,0,0,0,0,0
			c-1.4,3.4-2.8,6.8-4.2,10.2c0,0,0,0,0,0c1.5,0,3.2-0.7,4.2-1.8c1-1,1.8-2.7,1.8-4.2c-0.1-1.6-0.6-3.2-1.8-4.2
			c-1.2-1.1-2.6-1.8-4.2-1.8c0,0,0,0,0,0c-1,0-2.2,0.3-3,0.8c-1.1,0.7-2,1.7-2.5,2.9c-0.3,0.5-0.4,1-0.4,1.5c-0.1,0.5-0.1,1.1,0,1.6
			c0,0.5,0.1,1,0.4,1.5c0.2,0.7,0.7,1.4,1.2,1.9c0,0,0,0,0,0c0.7,0.7,1.7,1.3,2.6,1.5c0.5,0.1,1.1,0.1,1.6,0.2
			c0.8,0,1.6-0.1,2.3-0.5c0.5-0.1,0.9-0.4,1.3-0.8c0.5-0.3,0.8-0.6,1.1-1.1c0.8-1,1.3-2.3,1.3-3.6c0,0,0,0,0,0
			c0-1.5-0.7-3.2-1.8-4.2c-1-1-2.7-1.8-4.2-1.8c-1.6,0.1-3.2,0.6-4.2,1.8C182.4,100,181.7,101.4,181.7,103z"/>
	</g>
</g>
<g>
	<g>
		<path class="st1" d="M182.3,32.5c-0.2,23.5-0.4,47.1-0.6,70.6c-0.1,7.7,11.9,7.7,12,0c0.2-23.5,0.4-47.1,0.6-70.6
			C194.4,24.7,182.4,24.7,182.3,32.5L182.3,32.5z"/>
	</g>
</g>
<g>
	<g>
		<path class="st1" d="M181.7,103.1c0,0.4,0,0.8,0,1.3c0,1.5,0.7,3.2,1.8,4.2c1,1,2.7,1.8,4.2,1.8c1.6-0.1,3.2-0.6,4.2-1.8
			c1.1-1.2,1.7-2.6,1.8-4.2c0-0.4,0-0.8,0-1.3c0-1.5-0.7-3.2-1.8-4.2c-1-1-2.7-1.8-4.2-1.8c-1.6,0.1-3.2,0.6-4.2,1.8
			C182.4,100,181.7,101.4,181.7,103.1L181.7,103.1z"/>
	</g>
</g>
<g>
	<g>
		<g>
			<path class="st1" d="M192.7,153.8c-4.7-10.2-9.4-20.5-14-30.7c-3.2-7-13.5-0.9-10.4,6.1c4.7,10.2,9.4,20.5,14,30.7
				C185.5,166.8,195.9,160.7,192.7,153.8L192.7,153.8z"/>
		</g>
	</g>
	<g>
		<g>
			<path class="st1" d="M196,123c-4.7,10.2-9.4,20.5-14,30.7c-3.2,7,7.2,13.1,10.4,6.1c4.7-10.2,9.4-20.5,14-30.7
				C209.6,122.1,199.2,116,196,123L196,123z"/>
		</g>
	</g>
</g>
<g>
	<g>
		<g>
			<path class="st1" d="M145,123.9c8.1-7.8,16.3-15.6,24.4-23.3c5.6-5.3-2.9-13.8-8.5-8.5c-8.1,7.8-16.3,15.6-24.4,23.3
				C131,120.8,139.5,129.3,145,123.9L145,123.9z"/>
		</g>
	</g>
	<g>
		<g>
			<path class="st1" d="M174.3,116.6c-11.2-1.1-22.4-2.1-33.6-3.2c-7.7-0.7-7.6,11.3,0,12c11.2,1.1,22.4,2.1,33.6,3.2
				C182,129.3,182,117.3,174.3,116.6L174.3,116.6z"/>
		</g>
	</g>
</g>
<g>
	<g>
		<g>
			<path class="st1" d="M240.8,114.9c-8.2-7.7-16.4-15.5-24.6-23.2c-5.6-5.3-14.1,3.2-8.5,8.5c8.2,7.7,16.4,15.5,24.6,23.2
				C238,128.7,246.5,120.3,240.8,114.9L240.8,114.9z"/>
		</g>
	</g>
	<g>
		<g>
			<path class="st1" d="M203.1,128.3c11.2-1.1,22.4-2.2,33.6-3.4c7.6-0.8,7.7-12.8,0-12c-11.2,1.1-22.4,2.2-33.6,3.4
				C195.5,117,195.4,129,203.1,128.3L203.1,128.3z"/>
		</g>
	</g>
</g>
<g>
	<g>
		<g>
			<path class="st1" d="M153.6,64.2c1.8,11.1,3.5,22.2,5.3,33.4c1.2,7.6,12.8,4.4,11.6-3.2c-1.8-11.1-3.5-22.2-5.3-33.4
				C164,53.4,152.4,56.7,153.6,64.2L153.6,64.2z"/>
		</g>
	</g>
	<g>
		<g>
			<path class="st1" d="M190.8,75.5c-9.6-5.9-19.1-11.9-28.7-17.8c-6.6-4.1-12.6,6.3-6.1,10.4c9.6,5.9,19.1,11.9,28.7,17.8
				C191.4,89.9,197.4,79.5,190.8,75.5L190.8,75.5z"/>
		</g>
	</g>
</g>
<g>
	<g>
		<g>
			<path class="st1" d="M216.8,55.5c-9.9,5.4-19.8,10.8-29.6,16.2c-6.8,3.7-0.7,14.1,6.1,10.4c9.9-5.4,19.8-10.8,29.6-16.2
				C229.7,62.1,223.6,51.8,216.8,55.5L216.8,55.5z"/>
		</g>
	</g>
	<g>
		<g>
			<path class="st1" d="M218.2,95.1c2.4-11,4.8-22,7.2-33c1.6-7.5-9.9-10.7-11.6-3.2c-2.4,11-4.8,22-7.2,33
				C205,99.4,216.5,102.6,218.2,95.1L218.2,95.1z"/>
		</g>
	</g>
</g>
<g>
	<g>
		<g>
			<path class="st1" d="M130.7,75.5c2.2,4.9,4.5,9.9,6.7,14.8c1.3,3,5.6,3.7,8.2,2.2c3-1.8,3.5-5.2,2.2-8.2
				c-2.2-4.9-4.5-9.9-6.7-14.8c-1.3-3-5.6-3.7-8.2-2.2C129.9,69,129.4,72.5,130.7,75.5L130.7,75.5z"/>
		</g>
	</g>
	<g>
		<g>
			<path class="st1" d="M129.1,104.7c5.8-3.4,11.6-6.7,17.4-10.1c6.7-3.9,0.6-14.3-6.1-10.4c-5.8,3.4-11.6,6.7-17.4,10.1
				C116.4,98.3,122.4,108.6,129.1,104.7L129.1,104.7z"/>
		</g>
	</g>
</g>
<g>
	<g>
		<g>
			<path class="st1" d="M198.2,40c-4.4,4.4-8.8,8.7-13.2,13.1c-5.5,5.4,3,13.9,8.5,8.5c4.4-4.4,8.8-8.7,13.2-13.1
				C212.1,43,203.7,34.6,198.2,40L198.2,40z"/>
		</g>
	</g>
	<g>
		<g>
			<path class="st1" d="M170.6,49.4c4.5,4.3,9,8.5,13.5,12.8c5.6,5.3,14.1-3.2,8.5-8.5c-4.5-4.3-9-8.5-13.5-12.8
				C173.5,35.6,165,44.1,170.6,49.4L170.6,49.4z"/>
		</g>
	</g>
</g>
<g>
	<g>
		<g>
			<path class="st1" d="M251.7,93.2c-5.4-3.1-10.8-6.1-16.2-9.2c-6.7-3.8-12.8,6.5-6.1,10.4c5.4,3.1,10.8,6.1,16.2,9.2
				C252.4,107.4,258.4,97.1,251.7,93.2L251.7,93.2z"/>
		</g>
	</g>
	<g>
		<g>
			<path class="st1" d="M235.2,69.1c-2.9,5.5-5.8,10.9-8.7,16.4c-3.6,6.8,6.7,12.9,10.4,6.1c2.9-5.5,5.8-10.9,8.7-16.4
				C249.2,68.3,238.8,62.3,235.2,69.1L235.2,69.1z"/>
		</g>
	</g>
</g>
<g>
	<g>
		<g>
			<path class="st1" d="M219.4,160.3c0.7-6.2,1.4-12.3,2-18.5c0.4-3.2-3-6-6-6c-3.5,0-5.6,2.8-6,6c-0.7,6.2-1.4,12.3-2,18.5
				c-0.4,3.2,3,6,6,6C216.9,166.3,219,163.5,219.4,160.3L219.4,160.3z"/>
		</g>
	</g>
	<g>
		<g>
			<path class="st1" d="M234.2,136.2c-6.2-0.5-12.3-1-18.5-1.5c-7.7-0.6-7.7,11.4,0,12c6.2,0.5,12.3,1,18.5,1.5
				C241.9,148.9,241.9,136.8,234.2,136.2L234.2,136.2z"/>
		</g>
	</g>
</g>
<g>
	<g>
		<g>
			<path class="st1" d="M140.7,149.6c6.2-0.7,12.3-1.5,18.5-2.2c3.2-0.4,6-2.5,6-6c0-2.9-2.8-6.4-6-6c-6.2,0.7-12.3,1.5-18.5,2.2
				c-3.2,0.4-6,2.5-6,6C134.7,146.6,137.4,150,140.7,149.6L140.7,149.6z"/>
		</g>
	</g>
	<g>
		<g>
			<path class="st1" d="M168.8,158.2c-0.9-6.1-1.9-12.2-2.8-18.4c-0.5-3.2-4.5-5-7.4-4.2c-3.4,0.9-4.7,4.2-4.2,7.4
				c0.9,6.1,1.9,12.2,2.8,18.4c0.5,3.2,4.5,5,7.4,4.2C168,164.7,169.3,161.4,168.8,158.2L168.8,158.2z"/>
		</g>
	</g>
</g>
</svg>
