<?xml version="1.0" encoding="utf-8"?>
<!-- Generator: Adobe Illustrator 22.0.1, SVG Export Plug-In . SVG Version: 6.00 Build 0)  -->
<svg version="1.1" id="Capa_4" xmlns="http://www.w3.org/2000/svg" xmlns:xlink="http://www.w3.org/1999/xlink" x="0px" y="0px"
	 viewBox="0 0 376 324.3" style="enable-background:new 0 0 376 324.3;" xml:space="preserve">
<style type="text/css">
	.st0{fill:#F69F23;}
</style>
<g>
	<path class="st0" d="M192.4,247.2h121.3l9.6-22.4c0,0-9.4-0.3-12.4-2c-3-1.7-8.7-7-8.7-7s-7.9,10-22.6,9.4
		c-14.7-0.6-22.3-9.4-22.3-9.4s-8.7,9.3-22.3,9.2c-13.6-0.2-22.3-9.2-22.3-9.2s-7.6,9.7-22.7,9.2c-15.1-0.5-22-9.2-22-9.2
		s-8.2,9.3-22.6,9.2c-14.4-0.2-21.7-9.2-21.7-9.2s-10.7,9.7-23.5,9.3c-12.8-0.3-21.5-9.3-21.5-9.3s-4.4,4.7-9.6,7
		c-5.2,2.3-12.1,2.3-12.1,2.3l25,60.3h165.6c0,0,2.8,0.5,2.8,4.4c0,3.8-2.6,3.9-2.7,3.9H86l11.7,30.5h183.8l28.8-68.1h-118
		c0,0-3.2-0.9-3.2-4.5C189.1,248,192.4,247.2,192.4,247.2z M269.4,285.1c2.5,0,4.6,2.1,4.6,4.6c0,2.5-2,4.6-4.6,4.6
		c-2.5,0-4.5-2.1-4.5-4.6C264.9,287.1,266.9,285.1,269.4,285.1z"/>
	<path class="st0" d="M343,176.8c0,0-8.1-9.6-18.6-8.7c-10.5,0.9-15.3,6-15.3,6s-0.8,0.8-2.3,0.6c-1.5-0.2-2.5-1.3-2.5-1.3
		s3.5-48.5-18.9-77.6c-21.1-37.4-66.2-47.4-66.2-47.4s-10.6,13.6-23.9,13.7c-13.3,0.1-24.7-16-24.7-16s-47.6,7.5-75,50.2
		c-18.6,23.4-18.9,72.9-18.9,72.9s0,5.3-1.3,5.9c-1.3,0.6-4.9-2.1-4.9-2.1s-4.9-4.3-13.6-5c-10.7,0-19,8.6-19,8.6s-5.4,6.2-6,16.3
		c-0.7,10.1,6.8,17.5,6.8,17.5s6.9,6.1,16.9,6c10,0,15-3.2,15-3.2l6.2-6.4c0,0,1.3-1.5,2-1.3c0.5,0.2,1.5,1,1.5,1
		s7.1,10.3,20.7,10.7c13.6,0.4,20.6-11.2,20.6-11.2l2-0.8l1.7,1c0,0,6.6,10.1,19.7,10.9c13,0.8,20.8-10.7,20.8-10.7l2.1-1l2.4,1
		c0,0,7,11,20.9,10.7c13.8-0.3,19.9-11.2,19.9-11.2l1.9-0.6l1.8,0.6c0,0,6.7,11.1,20.3,11.1c13.6,0.1,21-11,21-11l1.5-0.6l1.7,0.7
		c0,0,7.7,10.9,20.6,10.9c12.9,0.1,21.1-10.9,21.1-10.9l1.6-0.6l1.5,0.7c0,0,7.6,11.6,20.6,10.9c13-0.7,18.3-8.1,18.3-8.1
		s5.9-6.2,5.9-15.8S343,176.8,343,176.8z M126,134c-2.5,0-4.5-2.1-4.5-4.6c0-2.5,2-4.6,4.5-4.6c2.5,0,4.5,2.1,4.5,4.6
		C130.5,132,128.5,134,126,134z M133,172.7c-2.5,0-4.5-2.1-4.5-4.6c0-2.5,2-4.6,4.5-4.6s4.5,2.1,4.5,4.6
		C137.6,170.6,135.5,172.7,133,172.7z M156.2,96.4c-2.5,0-4.5-2.1-4.5-4.6c0-2.5,2-4.6,4.5-4.6s4.5,2.1,4.5,4.6
		C160.7,94.4,158.7,96.4,156.2,96.4z M201.5,172.7c-2.5,0-4.5-2.1-4.5-4.6c0-2.5,2-4.6,4.5-4.6s4.5,2.1,4.5,4.6
		C206.1,170.6,204,172.7,201.5,172.7z M201.5,119.8c-2.5,0-4.5-2.1-4.5-4.6c0-2.5,2-4.6,4.5-4.6s4.5,2.1,4.5,4.6
		C206.1,117.8,204,119.8,201.5,119.8z M246.8,126.9c-2.5,0-4.5-2.1-4.5-4.6c0-2.5,2-4.6,4.5-4.6c2.5,0,4.5,2.1,4.5,4.6
		C251.4,124.9,249.3,126.9,246.8,126.9z M269,179.8c-2.5,0-4.5-2.1-4.5-4.6c0-2.5,2-4.6,4.5-4.6s4.5,2.1,4.5,4.6
		C273.5,177.8,271.5,179.8,269,179.8z"/>
	<path class="st0" d="M238.3,10.5c-2,2.9-4.8,1.4-4.8,1.4s-5.4-4.6-12.5-4.2c-7,0.4-9.9,7-9.9,7l-3.2,5.8c4.4,3.5,7.1,9,7.1,15
		c0,10.7-8.6,19.3-19.1,19.3s-19.1-8.7-19.1-19.3s8.6-19.3,19.1-19.3c2.1,0,4.1,0.3,6,1l1.9-4.5l2.6-4.4c0,0,6.9-8.3,15.2-8.3
		c8.3,0,15.7,5,15.7,5S240.3,7.6,238.3,10.5z"/>
</g>
</svg>
