<?xml version="1.0" encoding="utf-8"?>
<!-- Generator: Adobe Illustrator 22.0.1, SVG Export Plug-In . SVG Version: 6.00 Build 0)  -->
<svg version="1.1" id="Capa_2" xmlns="http://www.w3.org/2000/svg" xmlns:xlink="http://www.w3.org/1999/xlink" x="0px" y="0px"
	 viewBox="0 0 376 324.3" style="enable-background:new 0 0 376 324.3;" xml:space="preserve">
<style type="text/css">
	.st0{fill:#F69F23;}
	.st1{fill:#F69F23;stroke:#F69F23;stroke-miterlimit:10;}
</style>
<path class="st0" d="M12.8,216.2v11.3l152,92.3c0,0,7,2.8,11.7,2.2c4.7-0.6,8.6-2.6,8.6-2.6l127.7-77.7h21c0,0,12.4-0.9,22.7-6.2
	c10.3-5.3,12.3-16,12.3-16v-18.9L226.3,289l-12.5-12.2c0,0-2.3,15-9,23.5c-6.7,8.5-26.6,10.1-26.6,10.1s-14.2,0.9-21.8-4.1
	s-10.5-16.7-10.5-16.7s-0.1-8.3-7-14.3c-6.9-6.1-18.8-6.2-18.8-6.2s-15.2,0.8-29.5-5.4s-19.9-17.4-19.9-17.4s-0.6-12.4-8.8-18.2
	s-20.7-6.5-20.7-6.5c-11,0.8-16.2-1.1-16.2-1.1L12.8,216.2z"/>
<path class="st0" d="M202,252.7l25.8,22.3L376,184.5l-11-11.1c0,0-8.3,6.3-22.5,8.8s-27.8,0.8-27.8,0.8L202,252.7z"/>
<path class="st0" d="M192.3,258.1l13.6,12.1l-5.5,16.8c0,0-3.1,6.7-8.1,8.9c-5.1,2.2-13.9,3.1-13.9,3.1h-10.2c0,0-6.8,0.7-9.1-3.1
	s-3.8-11.2-3.8-11.2s-1.3-10.4-9.9-17.7s-27-9.5-27-9.5s-12.8,1.5-24.3-4s-14.6-13.1-14.8-14c-1.8-1.1,0.9-12.3-14.5-21.5
	c-13.1-7.4-24-7.3-24-7.3s-20.3-0.6-28.2-6S2.2,186.2,2.2,186.2s-2-11-1.7-15.3c0.3-4.3,2.2-10,2.2-10l158.7,99.8
	c0,0,8.1,4.2,15.2,4.2C183.6,265,192.3,258.1,192.3,258.1z"/>
<path class="st0" d="M12.8,133.5V158l153.5,93.3c0,0,4.2,1.8,7.8,1.8c3.6,0,9.2-1.8,9.2-1.8l129.8-78.6c0,0,19.7,1.8,36.3-3.6
	s19.3-16,19.3-16v-19.7c0,0-11.1,8-24.7,10.3c-13.5,2.3-28.7,1-28.7,1l-127,77.6c0,0-7.4,5-13.8,4.6c-3,0-12.8-4.6-12.8-4.6
	L12.8,133.5z"/>
<path class="st1" d="M350.5,73.1c0,0-21.4-25.7-70.3-47.3C231.2,4.2,204,2.3,204,2.3s-17-3.6-36.6,1.8c-19.6,5.3-21.2,12-21.2,12
	c-2.2,7.6-1.3,17-1.3,17l-1.7,4L12.8,118.5l152.7,94.8c0,0,5.9,2.9,9.3,2.9c3.4,0,9.8-3,9.8-3l128.6-79.7c0,0,39.8,4.9,52.7-12.5
	C378.7,103.5,350.5,73.1,350.5,73.1z M358.5,113.3c-4.8,12.9-48.7,11.1-48.7,11.1l-125.2,77.7c0,0-5.5,2.6-10.2,2.6
	c-4.7,0-9.9-4-9.9-4L30.8,116.9l115-69.2c0,0,7-6.6,8-10.3c1-3.7-0.7-8.5-0.3-10.9c0.3-2.4,2-4.8,6.2-9.3c4.2-4.4,26.8-4.7,26.8-4.7
	s37.8-1,76.5,13.9c38.6,14.9,76,48.9,76,48.9S363.3,100.5,358.5,113.3z"/>
<circle class="st0" cx="182.6" cy="35" r="8.2"/>
<circle class="st0" cx="257.6" cy="47.7" r="8.2"/>
<circle class="st0" cx="321.3" cy="97.5" r="8.2"/>
<circle class="st0" cx="279.2" cy="119.7" r="8.2"/>
<circle class="st0" cx="222.5" cy="135.2" r="8.2"/>
<circle class="st0" cx="179.5" cy="178.2" r="8.2"/>
<circle class="st0" cx="78.5" cy="115.8" r="8.2"/>
<circle class="st0" cx="143.5" cy="98.5" r="8.2"/>
<circle class="st0" cx="220.8" cy="88.8" r="8.2"/>
</svg>
