<?xml version="1.0" encoding="utf-8"?>
<!-- Generator: Adobe Illustrator 22.0.1, SVG Export Plug-In . SVG Version: 6.00 Build 0)  -->
<svg version="1.1" id="Capa_4" xmlns="http://www.w3.org/2000/svg" xmlns:xlink="http://www.w3.org/1999/xlink" x="0px" y="0px"
	 viewBox="0 0 376 324.3" style="enable-background:new 0 0 376 324.3;" xml:space="preserve">
<style type="text/css">
	.st0{fill:#F69F23;stroke:#F69F23;stroke-miterlimit:10;}
</style>
<polygon class="st0" points="23.7,190 23.7,201.2 286.5,164.1 281.8,159.7 279.5,156.6 278,154 "/>
<polygon class="st0" points="331.8,292.5 345.6,291.1 346.1,165.8 340,170.6 336.5,172.5 332.6,174 "/>
<path class="st0" d="M303.5,175.1c0,0,2.7,1.4,7.2,2.5c3.5,0.4,8.3,0,8.3,0v26.7c0,0-9.9,5.7-12.2,5.2c-2.2-0.5-12.3-2.8-12.3-2.8
	s-4.3-1-11-1.5c-6.7-0.5-15.8,6.5-15.8,6.5s-9.5-6-17.7-5c-8.2,1-16,9.5-16,9.5s-10.3-5.5-21.3-4.8c-11,0.7-19,7.5-19,7.5
	s-1.4,0.9-2,0.8s-2.1-0.8-2.1-0.8s-2.2-1.6-6.2-4.3c-4-2.8-5-4.2-5-4.2s-16.2,17.8-29.5,20.2s-39.5-6.3-39.5-6.3s-16,20.7-36.5,22.3
	c-12.3-0.4-24.2-8.3-24.2-8.3l-24.9,13.7v-37.3L303.5,175.1z"/>
<path class="st0" d="M23.7,267.1L49,252.6c0,0,6.8,5.4,25.5,6.3s39-19.5,39-19.5s11.1,4.2,29.7,5c18.6,0.8,36.2-16.7,36.2-16.7
	s7.3,5.2,13.4,4.5c6.1-0.6,11.3-4.5,11.3-4.5s5.3-3.8,10.3-4.3c4.9-0.5,21.4,9,21.4,9l10.1-9c0,0,3.5-3.3,5.8-3.4s7.6,2.1,7.6,2.1
	s9.6,5.8,10.5,5.5c0.9-0.3,6.5-6,6.5-6s4.9-3.5,8.3-3.5s9.8,2.1,9.8,2.1s4,2,11.1,2.3c7.2,0.3,13.8-3.1,13.8-3.1v19.3
	c0,0-3.3,4.9-14.9,4.6s-19-9.4-19-9.4s-11.8,13.4-30.6,13.4s-28.9-6.3-28.9-6.3s-12,10.6-18.4,8.8l-14.5-2c0,0-7-1.5-15.6,1.3
	c-8.6,2.7-14.4,14.8-14.4,14.8s-13.1-8.6-36.1-8.6S91.2,275,91.2,275s-19.5-4.6-35.4-4s-32.1,8.4-32.1,8.4V267.1z"/>
<path class="st0" d="M24.1,293.6v30.7L319,294.8v-41.3c0,0-8.4,3.4-17.1,2.6s-16.8-5.8-16.8-5.8s-13,10.4-29.1,10.1
	s-27.9-4.1-27.9-4.1s-10.3,6.6-20.5,6.5s-19.6-2-19.6-2s-6.5-1.1-9.8,2.9s-8,17.6-8,17.6s-26.8-14.1-45.5-12.9s-28.1,22-28.1,22
	s-16.9-6.8-36.9-6.5S24.1,293.6,24.1,293.6z"/>
<path class="st0" d="M339,94c-13.1-7.5-29.5,0.5-29.5,0.5s3-24.8-14.3-41s-44-8.5-44-8.5s-3.5-22.5-22.8-25
	c-11.1,0.5-19.8,10.3-19.8,10.3S194.8,2.9,167.5,3C147.8,4.5,133,19.3,133,36s16.3,26.5,16.3,26.5s-15.3,4.1-23.8,13
	S114,96.2,114,96.2l-83.8,78.9l241.5-33.4l-4.5-13.3l-1.8-12.7c0,0-15.5,3.3-27-5.8s-8.8-28.3-8.8-28.3s-7.3-3.8-11.8-6.5
	s-8-7.5-8-7.5s-4.5,2.9-8.5,5s-9.3,3.5-9.3,3.5s-3.4-3.6-5.5-5.5s-7.5-4.5-7.5-4.5s7.3-1,18-6.3s12.5-12,12.5-12s6.7,8.4,16.8,17
	c10.6,7.1,21.8,6.8,21.8,6.8s-13.8,22.8,1,29.8s32-11,32-11s-3.6,26.4,0,42s18.5,26,18.5,26s4.5,5.6,17.8,5.8s26-14.8,26-14.8
	s12-10.3,12-28.5S339,94,339,94z M186.1,89c0,0,6.1,10.7,6.1,17.7s-2.6,13.3-2.6,13.3s-8.4,7.3-24.5,10.7
	c-16.1,3.5-31.7-1.9-31.7-1.9s-6.5-4.9-7.6-21.1C128,73.1,161.6,75,161.6,75s-10,7.5-9.2,15.3c0.7,4.6,1.7,8.1,4.1,10.6
	c2.4,2.5,4.6,6.2,12.9,6.1C186.6,106.7,186.1,89,186.1,89z"/>
</svg>
